<svg width="811" height="759" viewBox="0 0 811 759" fill="none" xmlns="http://www.w3.org/2000/svg">
<path d="M751.334 138H120.334V124.536C120.334 115.991 127.251 109 135.705 109H735.706C744.16 109 751.078 115.991 751.078 124.536V138H751.334Z" fill="#CBFAFF"/>
<path d="M686.304 123.616C686.304 119.513 682.97 116.18 678.867 116.18C674.763 116.18 671.429 119.513 671.429 123.616C671.429 127.719 674.763 131.052 678.867 131.052C683.227 130.796 686.304 127.462 686.304 123.616Z" fill="white" stroke="#05383F" stroke-miterlimit="10" stroke-linecap="round" stroke-linejoin="round"/>
<path d="M711.183 123.616C711.183 119.513 707.848 116.18 703.745 116.18C699.641 116.18 696.307 119.513 696.307 123.616C696.307 127.719 699.641 131.052 703.745 131.052C707.848 130.796 711.183 127.462 711.183 123.616Z" fill="white" stroke="#05383F" stroke-miterlimit="10" stroke-linecap="round" stroke-linejoin="round"/>
<path d="M736.061 123.616C736.061 119.513 732.727 116.18 728.623 116.18C724.52 116.18 721.186 119.513 721.186 123.616C721.186 127.719 724.52 131.052 728.623 131.052C732.727 130.796 736.061 127.462 736.061 123.616Z" fill="white" stroke="#05383F" stroke-miterlimit="10" stroke-linecap="round" stroke-linejoin="round"/>
<path d="M736.061 681.585H135.389C126.925 681.585 120 674.662 120 666.2V124.385C120 115.923 126.925 109 135.389 109H736.061C744.525 109 751.45 115.923 751.45 124.385V666.2C751.706 674.662 744.781 681.585 736.061 681.585Z" stroke="#05383F" stroke-miterlimit="10" stroke-linecap="round" stroke-linejoin="round"/>
<path d="M239.262 174.643H148.982V230.543H239.262V174.643Z" fill="white" stroke="#05383F" stroke-miterlimit="10" stroke-linecap="round" stroke-linejoin="round"/>
<path d="M239.262 262.083H148.982V317.982H239.262V262.083Z" fill="white" stroke="#05383F" stroke-miterlimit="10" stroke-linecap="round" stroke-linejoin="round"/>
<path d="M239.262 349.522H148.982V405.421H239.262V349.522Z" fill="white" stroke="#05383F" stroke-miterlimit="10" stroke-linecap="round" stroke-linejoin="round"/>
<path d="M660.144 633.122C652.706 633.122 646.807 627.224 646.807 619.788V580.812C646.807 573.376 652.706 567.479 660.144 567.479C667.581 567.479 673.48 573.376 673.48 580.812V619.788C673.48 626.968 667.581 633.122 660.144 633.122Z" fill="white" stroke="#05383F" stroke-miterlimit="10" stroke-linecap="round" stroke-linejoin="round"/>
<path d="M683.483 620.814V610.044C683.483 608.506 682.457 607.48 680.918 607.48C679.379 607.48 678.354 608.506 678.354 610.044V620.814C678.354 631.071 670.146 639.276 659.887 639.276C649.628 639.276 641.421 631.071 641.421 620.814V609.275C641.421 607.737 640.395 606.711 638.856 606.711C637.317 606.711 636.291 607.737 636.291 609.275V620.814C636.291 632.866 645.524 642.866 657.322 644.148V654.918H644.242C642.703 654.918 641.677 655.943 641.677 657.482C641.677 659.021 642.703 660.046 644.242 660.046H676.558C678.097 660.046 679.123 659.021 679.123 657.482C679.123 655.943 678.097 654.918 676.558 654.918H662.452V644.148C674.506 642.866 683.483 632.866 683.483 620.814Z" fill="#05383F"/>
<path d="M398.247 253.979C398.247 253.979 340.641 290.533 339.063 267.391C332.75 174.559 369.575 104.343 418.238 99.0836C466.9 93.824 480.842 108.025 492.152 134.849C503.463 161.673 479.263 243.46 456.116 253.979C432.968 264.498 457.694 215.321 453.222 208.484C448.751 201.646 435.336 166.67 435.336 166.67C435.336 166.67 420.605 176.4 405.612 179.293C390.356 182.448 398.247 253.979 398.247 253.979Z" fill="#05383F"/>
<path d="M335.38 322.617L306.182 454.107L261.992 421.235L255.942 438.328C255.942 438.328 305.393 505.388 309.339 504.863C324.332 502.233 354.582 468.045 354.582 468.045L335.38 322.617Z" fill="white" stroke="#05383F" stroke-miterlimit="10" stroke-linecap="round" stroke-linejoin="round"/>
<path d="M494.257 681.585C511.354 535.894 474.002 481.194 474.002 481.194L459.009 467.782H354.582C301.711 537.735 320.913 644.505 319.861 681.585H494.257Z" fill="#56BDCA" stroke="#05383F" stroke-miterlimit="10" stroke-linecap="round" stroke-linejoin="round"/>
<path d="M333.013 581.916C331.96 604.795 330.382 644.505 329.593 650.554" stroke="#05383F" stroke-miterlimit="10" stroke-linecap="round" stroke-linejoin="round"/>
<path d="M333.802 565.874C333.802 565.874 333.539 570.082 333.276 576.656" stroke="#05383F" stroke-miterlimit="10" stroke-linecap="round" stroke-linejoin="round"/>
<path d="M336.169 658.969L335.643 664.755" stroke="#05383F" stroke-miterlimit="10" stroke-linecap="round" stroke-linejoin="round"/>
<path d="M339.326 610.581L336.432 653.184" stroke="#05383F" stroke-miterlimit="10" stroke-linecap="round" stroke-linejoin="round"/>
<path d="M487.68 603.217V597.957" stroke="#05383F" stroke-miterlimit="10" stroke-linecap="round" stroke-linejoin="round"/>
<path d="M487.154 647.135L487.681 608.477" stroke="#05383F" stroke-miterlimit="10" stroke-linecap="round" stroke-linejoin="round"/>
<path d="M397.195 261.343C397.195 261.343 412.188 263.709 422.446 262.92C432.968 262.131 443.227 253.979 443.227 253.979L444.016 300.264L505.83 327.088L473.739 481.457C473.739 481.457 441.648 510.648 396.932 503.811C366.682 499.34 341.167 486.717 341.167 486.717C341.167 486.717 342.745 424.653 337.484 392.57C332.223 360.486 335.117 322.617 335.117 322.617L397.721 296.582L396.932 266.865V261.343H397.195Z" fill="#05383F" stroke="#05383F" stroke-miterlimit="10" stroke-linecap="round" stroke-linejoin="round"/>
<path d="M455.063 304.997L444.279 300.264L443.49 253.979C443.49 253.979 432.968 262.131 422.709 262.92C412.188 263.709 397.458 261.343 397.458 261.343V266.602L398.247 296.319L382.464 302.893L375.888 348.389L410.873 378.895L449.803 352.86L455.063 304.997Z" fill="white" stroke="#05383F" stroke-miterlimit="10" stroke-linecap="round" stroke-linejoin="round"/>
<path d="M398.247 271.073C398.247 271.073 420.605 277.121 443.753 278.173L443.49 253.979C443.49 253.979 432.968 262.131 422.709 262.92C416.659 263.446 409.294 262.92 404.034 262.131L398.247 271.073Z" fill="#05383F" stroke="#05383F" stroke-miterlimit="10" stroke-linecap="round" stroke-linejoin="round"/>
<path d="M456.116 138.531C456.116 138.531 441.122 147.472 420.342 157.991C399.562 168.511 375.625 169.299 375.625 169.299C375.625 169.299 367.471 206.643 365.104 220.844C362.999 235.045 380.623 268.443 393.512 271.599C421.657 278.436 440.07 266.076 446.12 263.709C452.17 261.343 465.059 231.363 469.531 222.422C474.002 213.48 467.953 207.432 467.953 207.432C467.953 207.432 451.644 156.413 456.116 138.531Z" fill="white" stroke="#05383F" stroke-miterlimit="10" stroke-linecap="round" stroke-linejoin="round"/>
<path d="M392.723 190.075C392.197 194.02 390.355 196.912 388.514 196.649C386.673 196.386 385.621 192.968 386.147 189.286C386.673 185.341 388.514 182.448 390.355 182.711C392.197 182.711 393.249 186.13 392.723 190.075Z" fill="#05383F"/>
<path d="M433.757 197.438C433.231 201.383 431.39 204.276 429.549 204.013C427.707 203.75 426.655 200.331 427.181 196.649C427.707 192.705 429.549 189.812 431.39 190.075C433.231 190.338 434.283 193.494 433.757 197.438Z" fill="#05383F"/>
<path d="M408.505 187.708L404.56 210.324C404.56 210.324 397.195 210.324 394.564 213.217C392.197 216.11 398.247 221.107 403.508 222.158" stroke="#05383F" stroke-miterlimit="10" stroke-linecap="round" stroke-linejoin="round"/>
<path d="M422.183 178.241C422.183 178.241 435.072 173.244 444.279 186.919" stroke="#05383F" stroke-miterlimit="10" stroke-linecap="round" stroke-linejoin="round"/>
<path d="M404.297 174.559C404.297 174.559 401.403 160.621 384.831 168.51" stroke="#05383F" stroke-miterlimit="10" stroke-linecap="round" stroke-linejoin="round"/>
<path d="M393.775 232.678C393.775 232.678 408.505 240.567 427.181 225.051" stroke="#05383F" stroke-miterlimit="10" stroke-linecap="round" stroke-linejoin="round"/>
<path d="M459.009 214.532C459.009 214.532 473.213 198.753 480.578 206.38C487.943 213.743 482.683 228.733 473.739 231.626C464.796 234.519 455.853 231.626 455.853 231.626" fill="white"/>
<path d="M459.009 214.532C459.009 214.532 473.213 198.753 480.578 206.38C487.943 213.743 482.683 228.733 473.739 231.626C464.796 234.519 455.853 231.626 455.853 231.626" stroke="#05383F" stroke-miterlimit="10" stroke-linecap="round" stroke-linejoin="round"/>
<path d="M506.093 327.088L542.656 423.339L602.366 344.97C602.366 344.97 597.895 328.666 600.788 321.039C603.681 313.676 608.942 307.627 611.31 303.156C613.677 298.686 612.888 286.852 618.149 291.848C623.409 296.845 621.042 306.838 621.042 306.838C621.042 306.838 639.718 284.485 643.401 282.907C647.083 281.329 650.24 284.485 650.24 284.485C650.24 284.485 657.079 278.436 658.394 283.696C659.972 288.956 653.133 300.79 653.133 300.79L659.972 297.108C659.972 297.108 664.444 295.004 664.444 298.686C664.444 302.368 648.661 318.146 648.661 318.146C648.661 318.146 658.394 309.205 662.076 312.098C665.759 314.991 644.979 331.558 642.611 336.029C640.244 340.5 638.14 344.97 632.879 347.863C627.618 350.756 621.042 353.123 621.042 353.123C621.042 353.123 574.747 455.948 566.593 473.042C558.438 490.136 547.128 494.606 541.341 492.502C535.291 490.136 487.681 418.605 487.681 418.605L506.093 327.088Z" fill="white" stroke="#05383F" stroke-miterlimit="10" stroke-linecap="round" stroke-linejoin="round"/>
<path d="M620.779 306.838L618.149 313.676C618.149 313.676 622.094 322.88 621.568 328.403C620.779 333.925 616.833 338.133 616.833 338.133" stroke="#05383F" stroke-miterlimit="10" stroke-linecap="round" stroke-linejoin="round"/>
<path d="M649.977 284.485L634.194 305.786" stroke="#05383F" stroke-miterlimit="10" stroke-linecap="round" stroke-linejoin="round"/>
<path d="M652.87 301.053L642.612 311.835" stroke="#05383F" stroke-miterlimit="10" stroke-linecap="round" stroke-linejoin="round"/>
<path d="M629.985 303.945C629.985 303.945 640.244 310.783 648.398 318.146" stroke="#05383F" stroke-miterlimit="10" stroke-linecap="round" stroke-linejoin="round"/>
<path d="M261.729 401.511L296.187 481.983L361.684 461.208L339.063 382.051L261.729 401.511Z" fill="#FD4445"/>
<path d="M261.729 401.511L233.32 364.431L269.094 446.218L296.187 481.983L261.729 401.511Z" fill="#FD4445"/>
<path d="M261.727 401.511C261.727 401.511 263.569 393.885 263.043 387.047C262.517 380.21 238.58 356.805 238.58 356.805L233.582 364.431L261.727 401.511Z" fill="white" stroke="#05383F" stroke-miterlimit="10" stroke-linecap="round" stroke-linejoin="round"/>
<path d="M261.729 401.511C261.729 401.511 263.57 389.677 272.513 383.892C281.194 378.106 334.065 372.583 336.169 372.583C338.01 372.583 339.326 382.051 339.326 382.051L261.729 401.511Z" fill="white" stroke="#05383F" stroke-miterlimit="10" stroke-linecap="round" stroke-linejoin="round"/>
<path d="M256.731 448.059C256.731 448.059 259.887 453.055 264.885 456.211C269.883 459.367 273.828 459.367 271.724 455.948C269.62 452.529 264.359 446.744 264.359 446.744C264.359 446.744 256.731 444.377 256.731 448.059Z" fill="white" stroke="#05383F" stroke-miterlimit="10" stroke-linecap="round" stroke-linejoin="round"/>
<path d="M248.313 431.491C248.313 431.491 249.892 442.273 253.311 445.692C256.731 449.111 269.62 454.107 271.724 451.477C273.828 448.848 265.674 446.744 260.413 440.695C255.416 434.647 248.313 431.491 248.313 431.491Z" fill="white" stroke="#05383F" stroke-miterlimit="10" stroke-linecap="round" stroke-linejoin="round"/>
<path d="M244.894 419.394C244.894 419.394 244.105 428.072 248.577 433.332C253.048 438.854 264.885 445.955 269.357 444.114C273.828 442.536 265.937 437.802 263.307 434.647C260.413 431.754 244.894 419.394 244.894 419.394Z" fill="white" stroke="#05383F" stroke-miterlimit="10" stroke-linecap="round" stroke-linejoin="round"/>
<path d="M248.84 401.774C248.84 401.774 242.79 413.608 244.894 419.657C246.998 425.705 263.57 436.488 266.726 436.488C269.62 436.488 272.776 433.069 267.779 428.072C262.781 423.076 255.416 415.186 255.416 415.186L248.84 401.774Z" fill="white" stroke="#05383F" stroke-miterlimit="10" stroke-linecap="round" stroke-linejoin="round"/>
<path d="M401.403 681.585L408.505 574.815L415.344 681.585" fill="white"/>
<path d="M401.403 681.585L408.505 574.815L415.344 681.585" stroke="#05383F" stroke-miterlimit="10" stroke-linecap="round" stroke-linejoin="round"/>
<path d="M743.251 3.65996L622.388 37.7489L581.915 1.16565L743.251 3.65996Z" fill="white" stroke="#05383F" stroke-miterlimit="10" stroke-linecap="round" stroke-linejoin="round"/>
<path d="M626.269 64.0778L725.51 12.2515L628.764 46.3405L626.269 64.0778Z" fill="white" stroke="#05383F" stroke-miterlimit="10" stroke-linecap="round" stroke-linejoin="round"/>
<path d="M622.388 37.749L626.269 64.0779L628.764 46.3405L743.251 3.66L622.388 37.749Z" fill="white" stroke="#05383F" stroke-miterlimit="10" stroke-linecap="round" stroke-linejoin="round"/>
<path d="M628.764 46.3405L657.871 98.1669L743.251 3.66L628.764 46.3405Z" fill="white" stroke="#05383F" stroke-miterlimit="10" stroke-linecap="round" stroke-linejoin="round"/>
<path d="M604.124 60.3392C604.124 60.3392 550.835 84.5403 475.812 58.8343C400.789 33.1283 320.33 -2.65947 250.083 4.47218C180.12 11.5872 128.682 43.0696 118.924 90.4449C109.15 137.547 156.412 170.903 165.999 144.887C175.301 118.887 147.156 61.6923 88.1596 71.1747C29.1629 80.657 -29.8851 142.693 19.6539 239.14" stroke="#05383F" stroke-miterlimit="10" stroke-linecap="round" stroke-linejoin="round" stroke-dasharray="3 3"/>
<path d="M138 473H174.2" stroke="#05383F" stroke-miterlimit="10" stroke-linecap="round"/>
<path d="M138 482.4H174.2" stroke="#05383F" stroke-miterlimit="10" stroke-linecap="round"/>
<path d="M138 491.8H174.2" stroke="#05383F" stroke-miterlimit="10" stroke-linecap="round"/>
<path d="M138 501.2H174.2" stroke="#05383F" stroke-miterlimit="10" stroke-linecap="round"/>
<path d="M715 162H751.2" stroke="#05383F" stroke-miterlimit="10" stroke-linecap="round"/>
<path d="M715 171.4H751.2" stroke="#05383F" stroke-miterlimit="10" stroke-linecap="round"/>
<path d="M715 180.8H751.2" stroke="#05383F" stroke-miterlimit="10" stroke-linecap="round"/>
<path d="M715 190.2H751.2" stroke="#05383F" stroke-miterlimit="10" stroke-linecap="round"/>
</svg>
