<svg width="1151" height="730" viewBox="0 0 1151 730" fill="none" xmlns="http://www.w3.org/2000/svg">
<path d="M89.2592 18.8891L222.238 84.6598L276.112 50.7789L89.2592 18.8891Z" fill="white" stroke="#05383F" stroke-miterlimit="10" stroke-linecap="round" stroke-linejoin="round"/>
<path d="M212.598 115.387L107.827 32.8965L213.17 94.0019L212.598 115.387Z" fill="white" stroke="#05383F" stroke-miterlimit="10" stroke-linecap="round" stroke-linejoin="round"/>
<path d="M222.285 85.2768L212.657 115.358L213.23 93.9814L89.0439 18.9505L222.285 85.2768Z" fill="white" stroke="#05383F" stroke-miterlimit="10" stroke-linecap="round" stroke-linejoin="round"/>
<path d="M213.239 94.2868L169.346 149.052L88.7878 18.9505L213.239 94.2868Z" fill="white" stroke="#05383F" stroke-miterlimit="10" stroke-linecap="round" stroke-linejoin="round"/>
<path d="M234.919 125.624C234.919 125.624 297.365 188.242 414.128 202.677C530.891 217.113 660.08 222.457 754.352 274.453C848.237 326.253 904.593 396.712 895.303 461.14C886.167 525.24 804.327 537.312 803.548 499.331C803.156 461.545 869.908 408.318 947.396 456.294C1024.88 504.27 1077.08 617.09 961.626 705.569" stroke="#05383F" stroke-miterlimit="10" stroke-linecap="round" stroke-linejoin="round" stroke-dasharray="3 3"/>
<path d="M365.266 591.725L330.834 702.887C329.465 707.326 332.595 711.764 337.095 711.764C339.442 711.764 341.594 710.553 342.768 708.536L400.48 611.899L365.266 591.725Z" fill="#05383F" stroke="#05383F" stroke-miterlimit="10" stroke-linecap="round" stroke-linejoin="round"/>
<path d="M588.679 591.725L623.11 702.887C624.479 707.326 621.349 711.764 616.85 711.764C614.502 711.764 612.35 710.553 611.176 708.536L553.465 611.899L588.679 591.725Z" fill="#05383F" stroke="#05383F" stroke-miterlimit="10" stroke-linecap="round" stroke-linejoin="round"/>
<path d="M626.044 526.762C615.48 525.754 600.221 533.622 588.483 533.824C574.397 534.025 560.899 530.999 549.356 522.526C527.641 506.386 511.403 481.975 496.34 459.581C458.191 403.092 413.196 287.088 413.196 287.088C413 286.482 412.805 285.877 412.609 285.272C402.827 273.369 396.371 271.755 381.895 278.009C365.266 285.07 347.659 299.192 347.659 299.192L347.463 298.991C310.293 334.296 287.013 385.136 287.013 441.424C287.013 548.349 371.135 635.1 474.82 635.1C544.661 635.1 605.699 595.76 637.978 537.253C637.195 530.192 631.718 527.368 626.044 526.762Z" fill="#CBFAFF"/>
<path d="M682.191 487.422C682.191 487.422 683.952 496.299 705.471 503.158C726.991 510.219 743.62 512.438 745.185 523.131C746.946 533.622 741.859 542.499 725.23 548.349C708.797 554.2 671.823 545.928 654.216 541.893C636.609 537.859 603.155 527.771 603.155 527.771C603.155 527.771 675.344 496.299 682.191 487.422Z" fill="#05383F" stroke="#05383F" stroke-miterlimit="10" stroke-linecap="round" stroke-linejoin="round"/>
<path d="M745.185 523.131C744.207 517.482 739.12 514.254 731.295 511.228C709.384 508.404 685.712 515.061 672.018 512.439C662.823 510.623 656.368 507.193 652.455 504.772C629.957 515.868 603.155 527.771 603.155 527.771C603.155 527.771 636.609 537.657 654.216 541.894C671.823 545.929 708.797 554.2 725.23 548.35C741.664 542.499 746.946 533.824 745.185 523.131Z" fill="white" stroke="#05383F" stroke-miterlimit="10" stroke-linecap="round" stroke-linejoin="round"/>
<path d="M464.478 521.662C464.478 521.662 495.24 540.99 519.733 545.017C544.225 549.043 569.306 545.62 602.223 534.547C635.141 523.474 668.255 504.146 693.336 487.838C718.416 471.53 743.888 445.76 743.496 423.01C742.908 400.259 712.734 394.42 700.193 395.024C687.653 395.628 679.62 404.286 647.29 414.352C614.96 424.218 572.832 425.425 554.61 422.003C536.388 418.58 516.402 415.56 516.402 415.56C516.402 415.56 527.178 439.519 520.321 464.081C513.463 488.644 500.922 499.717 493.673 502.737C486.031 505.354 464.478 521.662 464.478 521.662Z" fill="#56BDCA" stroke="#05383F" stroke-miterlimit="10" stroke-linecap="round" stroke-linejoin="round"/>
<path d="M522.554 409.548V416.003C522.554 416.003 530.575 423.67 539.574 431.134C548.574 438.801 558.942 453.327 558.942 453.327C558.942 453.327 578.897 452.721 592.982 453.932C607.263 455.142 620.175 459.782 620.175 459.782L679.256 404.706L677.496 395.425L632.109 400.066L581.049 373.031L537.227 409.951L522.554 409.548Z" fill="#05383F" stroke="#05383F" stroke-miterlimit="10" stroke-linecap="round" stroke-linejoin="round"/>
<path d="M628.196 389.575C628.196 389.575 615.089 379.689 604.916 372.628C594.743 365.567 581.635 360.322 581.635 360.322L522.554 409.548C522.554 409.548 547.008 423.67 560.703 444.652L628.196 389.575Z" fill="white" stroke="#05383F" stroke-miterlimit="10" stroke-linecap="round" stroke-linejoin="round"/>
<path d="M628.196 389.575L560.507 444.652C560.507 444.652 584.374 444.652 592.395 446.467C600.416 448.283 617.436 449.897 617.436 449.897L677.691 395.425C677.496 395.425 650.303 384.329 628.196 389.575Z" fill="white" stroke="#05383F" stroke-miterlimit="10" stroke-linecap="round" stroke-linejoin="round"/>
<path d="M584.766 374.444C584.766 374.444 605.698 381.303 612.35 392.803" stroke="#05383F" stroke-miterlimit="10" stroke-linecap="round" stroke-linejoin="round"/>
<path d="M571.071 384.127C571.071 384.127 592.004 390.987 598.656 402.486" stroke="#05383F" stroke-miterlimit="10" stroke-linecap="round" stroke-linejoin="round"/>
<path d="M557.181 393.61C557.181 393.61 578.114 400.469 584.766 411.969" stroke="#05383F" stroke-miterlimit="10" stroke-linecap="round" stroke-linejoin="round"/>
<path d="M543.487 403.293C543.487 403.293 564.42 410.153 571.071 421.652" stroke="#05383F" stroke-miterlimit="10" stroke-linecap="round" stroke-linejoin="round"/>
<path d="M626.24 396.838C626.24 396.838 636.021 393.61 658.715 400.066" stroke="#05383F" stroke-miterlimit="10" stroke-linecap="round" stroke-linejoin="round"/>
<path d="M613.328 407.934C613.328 407.934 622.718 402.89 645.412 409.346" stroke="#05383F" stroke-miterlimit="10" stroke-linecap="round" stroke-linejoin="round"/>
<path d="M600.025 417.214C600.025 417.214 609.415 412.17 632.109 418.626" stroke="#05383F" stroke-miterlimit="10" stroke-linecap="round" stroke-linejoin="round"/>
<path d="M586.526 426.293C586.526 426.293 595.917 421.249 618.61 427.705" stroke="#05383F" stroke-miterlimit="10" stroke-linecap="round" stroke-linejoin="round"/>
<path d="M511.795 107.331C511.795 107.331 511.795 109.147 511.795 123.068C511.795 137.19 515.12 159.382 520.794 164.627C526.467 169.873 534.488 171.689 529.793 178.75C525.293 185.811 519.033 187.021 519.033 187.021C519.033 187.021 512.186 212.24 512.186 224.546C512.186 236.853 520.794 245.124 505.926 247.949C491.253 250.975 476.385 238.063 476.385 238.063L467.386 255.01L435.498 236.853C435.498 236.853 445.084 221.722 441.758 206.389C438.432 191.258 416.717 166.04 415.152 154.338C413.391 142.637 405.566 118.629 431.585 103.296C457.8 88.1655 465.625 85.1393 479.32 85.1393C493.014 84.9376 510.621 98.4546 511.795 107.331Z" fill="white" stroke="#05383F" stroke-miterlimit="10" stroke-linecap="round" stroke-linejoin="round"/>
<path d="M429.433 80.9027C429.433 80.9027 390.307 103.095 389.133 124.883C387.959 146.47 411.239 177.539 419.847 185.811C428.455 194.082 441.954 206.389 441.954 206.389C441.954 206.389 447.04 203.968 451.54 198.723C456.039 193.477 456.039 181.776 452.714 176.53C449.388 171.285 442.541 160.189 447.04 156.558C451.54 153.128 457.213 150.707 461.321 155.952C465.234 161.198 466.408 168.259 466.408 168.259C466.408 168.259 472.668 163.013 472.081 158.979C471.494 154.944 465.234 148.488 465.234 144.856C465.234 141.427 473.842 141.83 474.233 131.945C474.82 122.059 470.907 112.577 470.907 112.577C470.907 112.577 499.861 121.857 497.514 111.366C495.166 100.876 487.341 96.2354 487.341 96.2354C487.341 96.2354 514.534 117.419 519.229 111.972C523.728 106.726 517.468 85.5429 493.601 73.8416C469.734 62.1403 429.433 80.9027 429.433 80.9027Z" fill="#05383F" stroke="#05383F" stroke-miterlimit="10" stroke-linecap="round" stroke-linejoin="round"/>
<path d="M503.774 155.952C503.774 160.391 502.6 164.224 501.23 164.224C499.861 164.224 498.687 160.593 498.687 155.952C498.687 151.514 499.861 147.681 501.23 147.681C502.6 147.681 503.774 151.312 503.774 155.952Z" fill="#05383F"/>
<path d="M507.268 246.477C521.94 243.451 513.528 235.381 513.528 223.075C513.528 210.768 520.375 185.55 520.375 185.55C520.375 185.55 512.941 183.129 499.834 190.19C486.727 197.251 469.12 211.777 468.533 218.838C467.946 225.899 477.532 236.39 477.532 236.39C477.532 236.39 477.727 236.592 478.119 236.793C480.858 239.214 493.965 249.1 507.268 246.477Z" fill="#05383F" stroke="#05383F" stroke-miterlimit="10" stroke-linecap="round" stroke-linejoin="round"/>
<path d="M495.753 198.723C495.753 198.723 499.079 206.389 510.034 207.6" stroke="white" stroke-miterlimit="10" stroke-linecap="round" stroke-linejoin="round"/>
<path d="M492.231 142.839C492.231 142.839 495.362 132.751 504.752 136.786" stroke="#05383F" stroke-miterlimit="10" stroke-linecap="round" stroke-linejoin="round"/>
<path d="M468.169 170.881C468.169 170.881 463.669 155.347 458.778 152.523C453.887 149.698 443.128 155.347 443.128 164.022C443.128 172.697 452.909 187.828 458.191 190.653C463.473 193.477 467.19 189.644 467.19 189.644" fill="white"/>
<path d="M468.169 170.881C468.169 170.881 463.669 155.347 458.778 152.523C453.887 149.698 443.128 155.347 443.128 164.022C443.128 172.697 452.909 187.828 458.191 190.653C463.473 193.477 467.19 189.644 467.19 189.644" stroke="#05383F" stroke-miterlimit="10" stroke-linecap="round" stroke-linejoin="round"/>
<path d="M455.257 196.302C469.519 196.302 481.08 183.837 481.08 168.461C481.08 153.085 469.519 140.62 455.257 140.62C440.995 140.62 429.433 153.085 429.433 168.461C429.433 183.837 440.995 196.302 455.257 196.302Z" fill="#FD4445"/>
<path d="M455.257 185.206C463.9 185.206 470.908 177.709 470.908 168.461C470.908 159.213 463.9 151.716 455.257 151.716C446.613 151.716 439.606 159.213 439.606 168.461C439.606 177.709 446.613 185.206 455.257 185.206Z" fill="#CBFAFF" stroke="#05383F" stroke-miterlimit="10" stroke-linecap="round" stroke-linejoin="round"/>
<path d="M451.54 168.864L427.086 78.0784L436.085 74.447L457.8 167.654L451.54 168.864Z" fill="white" stroke="#05383F" stroke-miterlimit="10" stroke-linecap="round" stroke-linejoin="round"/>
<path d="M430.998 238.467C430.998 238.467 401.458 264.895 393.437 309.885C385.416 355.076 404.783 452.721 426.303 485.001C447.823 517.28 465.43 525.955 471.69 527.166C477.95 528.376 514.338 514.859 527.837 504.368C541.531 493.878 548.769 475.72 549.356 457.563C549.943 439.406 541.922 426.494 532.336 409.548C522.75 392.601 487.536 323.402 481.276 299.999C475.016 276.597 481.276 280.632 465.43 256.624C449.779 232.616 430.998 238.467 430.998 238.467Z" fill="#97CAEF" stroke="#05383F" stroke-miterlimit="10" stroke-linecap="round" stroke-linejoin="round"/>
<path d="M499.861 444.046C499.861 444.046 526.076 452.923 560.116 450.502C594.156 448.081 632.305 433.556 632.305 433.556C632.305 433.556 635.239 426.494 639.739 418.828C644.238 411.162 653.433 407.732 655.585 404.706C657.932 401.68 660.084 391.794 663.019 397.645C665.953 403.495 664.78 408.135 661.845 410.556C658.911 412.977 658.519 415.197 658.519 415.197C658.519 415.197 666.54 409.951 673.779 406.32C681.213 402.89 686.886 397.039 690.212 391.592C693.538 386.347 695.298 386.952 695.298 392.197C695.298 397.443 690.212 409.749 690.212 409.749C690.212 409.749 689.038 418.626 687.864 426.696C686.69 434.968 679.256 441.827 669.084 446.669C658.911 451.309 623.11 461.8 616.263 464.221C609.415 466.642 547.009 487.624 521.381 492.264C495.753 496.904 480.493 496.904 474.82 494.685C469.147 492.667 454.279 461.598 454.279 461.598C454.279 461.598 486.167 458.169 499.861 444.046Z" fill="white" stroke="#05383F" stroke-miterlimit="10" stroke-linecap="round" stroke-linejoin="round"/>
<path d="M421.412 307.666C421.412 307.666 427.086 362.742 432.172 406.118C437.259 449.493 440.78 467.651 440.78 467.651C440.78 467.651 458.974 468.861 475.994 462.405C493.014 455.949 510.034 440.213 510.034 440.213C510.034 440.213 482.841 338.331 472.473 307.867C462.3 277.404 453.105 265.702 437.259 269.132C421.412 272.562 421.999 296.166 421.999 296.166" fill="#97CAEF"/>
<path d="M421.412 307.666C421.412 307.666 427.086 362.742 432.172 406.118C437.259 449.493 440.78 467.651 440.78 467.651C440.78 467.651 458.974 468.861 475.994 462.405C493.014 455.949 510.034 440.213 510.034 440.213C510.034 440.213 482.841 338.331 472.473 307.867C462.3 277.404 453.105 265.702 437.259 269.132C421.412 272.562 421.999 296.166 421.999 296.166" stroke="#05383F" stroke-miterlimit="10" stroke-linecap="round" stroke-linejoin="round"/>
<path d="M432.759 224.546L476.972 248.957L484.406 279.018L426.499 239.072L432.759 224.546Z" fill="#FD4445" stroke="#05383F" stroke-miterlimit="10" stroke-linecap="round" stroke-linejoin="round"/>
<path d="M524.171 393.159C524.171 393.159 537.626 396.27 540.317 396.892C543.2 397.558 555.335 397.299 560.173 394.332C564.82 391.321 578.987 396.843 581.639 392.758C584.292 388.673 570.957 384.978 566.993 384.674C563.028 384.37 558.174 384.474 558.174 384.474C558.174 384.474 562.687 374.282 564.586 372.883C566.677 371.528 585.004 367.593 588.056 366.46C591.3 365.372 589.099 361.391 582.587 361.724C576.075 362.057 564.927 359.48 564.927 359.48C564.927 359.48 573.986 358.51 574.427 356.365C574.909 354.025 564.432 354.054 559.65 354.787C554.868 355.52 549.174 354.817 549.174 354.817C549.174 354.817 540.115 355.787 534.315 358.531C528.515 361.276 515.75 377.322 515.75 377.322L524.171 393.159Z" fill="white" stroke="#05383F" stroke-miterlimit="10" stroke-linecap="round" stroke-linejoin="round"/>
<path d="M567.966 359.563C567.966 359.563 560.49 357.843 550.785 361.085" stroke="#05383F" stroke-miterlimit="10" stroke-linecap="round" stroke-linejoin="round"/>
</svg>
